<svg width="1624" height="1624" viewBox="0 0 1624 1624" fill="none" xmlns="http://www.w3.org/2000/svg">
<path d="M471.532 490.41C456.532 419.91 460.604 361.337 504.282 296.41C553.929 222.61 618.471 202.765 706.782 192.16C870.5 172.5 969.743 226.255 1101.66 310.749M1105.03 312.91C1218.5 391 1213.35 494.41 1189.78 576.91C1162.78 671.41 1170.5 695.75 1115 755M1105.03 312.91L1101.66 310.749M1105.03 312.91C1103.9 312.189 1102.78 311.468 1101.66 310.749" stroke="black" stroke-width="30"/>
<path d="M1154.39 1170.82C1162.47 1170.82 1167.36 1177.67 1173.75 1181.78C1194.51 1195.16 1211.16 1214.12 1232.07 1227.51C1252.84 1240.8 1275.06 1251.85 1294.59 1266.93C1313.06 1281.19 1331.37 1296.02 1350.58 1309.27C1379.88 1329.48 1404.7 1361.06 1435.73 1376.57" stroke="black" stroke-width="30" stroke-linecap="round"/>
<path d="M490.629 1209.02C479.585 1210.12 467.077 1216.78 456.575 1220.37C434.234 1228.01 411.273 1236.35 391.157 1248.75C363.057 1266.07 337.199 1287.61 324.543 1319.24C306.733 1363.77 302.05 1410.07 288.996 1455.76C283.444 1475.19 272.865 1497.89 272.865 1518.19" stroke="black" stroke-width="30" stroke-linecap="round"/>
<path d="M598.031 1365.91C604.568 1341.55 612.107 1328.69 615.281 1303.66C604.032 1232.41 584.532 1204.66 567.282 1139.41C545.879 1111 505.147 1099.43 478.031 1076.41C428.532 996.161 411.986 813.16 415.031 762.91C418.077 712.66 452.532 675.91 454.781 618.91C456.794 567.91 450.075 550.29 463.031 509.41C480.293 454.947 499.584 420.84 547.781 390.16C619.463 344.533 674 383.5 758.5 401.5C832.286 417.218 888 431.25 925.5 471C948.835 495.736 957.45 511.5 961 547C964.55 582.5 969.281 606.321 969.281 657.16C969.281 708 943.175 774.315 952.781 781.66C965.532 791.41 995.671 757.693 1025.53 748.66C1054.24 739.975 1074.68 722.036 1101.28 735.91C1114.5 742.807 1121.39 749.687 1128.28 762.91C1142.96 791.083 1123.18 813.057 1111.03 842.41C1090.98 890.851 1042.28 896.229 1025.53 945.911C1010.56 990.319 1005.87 1023.37 1025.53 1065.91C1037.49 1091.78 1072.16 1093.66 1072.03 1122.16C1071.86 1159.79 1021.6 1152.3 990.281 1173.16C883.797 1244.11 851.067 1322.65 737.531 1381.66C685.411 1408.75 619.281 1448.16 602.031 1433.91C580.354 1416 589.782 1396.66 598.031 1365.91Z" stroke="black" stroke-width="30"/>
<path d="M489.153 929.289C492.844 929.75 500.539 936.338 503.91 938.398C519.119 947.693 532.088 951.038 549.911 953.064C573.899 955.79 600.743 951.666 623.604 944.046" stroke="black" stroke-width="40" stroke-linecap="round"/>
<path d="M487.362 687.424L559.009 646.059" stroke="black" stroke-width="40" stroke-linecap="round"/>
<path d="M502.632 630.435L543.998 702.082" stroke="black" stroke-width="40" stroke-linecap="round"/>
<path d="M659.426 726.933L731.074 685.567" stroke="black" stroke-width="40" stroke-linecap="round"/>
<path d="M674.567 670.426L715.933 742.074" stroke="black" stroke-width="40" stroke-linecap="round"/>
</svg>
