<svg width="1624" height="1624" viewBox="0 0 1624 1624" fill="none" xmlns="http://www.w3.org/2000/svg">
<path d="M1154.39 1170.82C1162.47 1170.82 1167.36 1177.67 1173.75 1181.78C1194.51 1195.16 1211.16 1214.12 1232.07 1227.51C1252.84 1240.8 1275.06 1251.85 1294.59 1266.93C1313.06 1281.19 1331.37 1296.02 1350.58 1309.27C1379.88 1329.48 1404.7 1361.06 1435.73 1376.57" stroke="black" stroke-width="30" stroke-linecap="round"/>
<path d="M490.628 1209.02C479.585 1210.12 467.077 1216.78 456.575 1220.37C434.234 1228.01 411.273 1236.35 391.156 1248.75C363.056 1266.07 337.199 1287.61 324.543 1319.24C306.732 1363.77 302.05 1410.07 288.996 1455.76C283.444 1475.19 272.865 1497.89 272.865 1518.19" stroke="black" stroke-width="30" stroke-linecap="round"/>
<path d="M504.282 296.41C461.342 360.24 456.681 417.931 470.789 486.849C486.528 445.081 506.607 416.37 547.782 390.16C619.463 344.533 674 383.5 758.5 401.5C832.286 417.218 888.001 431.25 925.5 471C948.836 495.736 957.45 511.5 961 547C964.55 582.5 969.282 606.321 969.282 657.16C969.282 708 943.175 774.315 952.782 781.66C965.532 791.41 995.671 757.693 1025.53 748.66C1054.25 739.975 1074.68 722.036 1101.28 735.91C1109.29 740.09 1114.98 744.263 1119.75 749.845C1170.08 694.253 1163.58 668.623 1189.78 576.91C1213.35 494.41 1218.5 391 1105.03 312.91L1101.66 310.749C969.743 226.255 870.5 172.5 706.782 192.16C618.471 202.765 553.929 222.61 504.282 296.41Z" fill="black"/>
<path d="M471.532 490.41C471.279 489.22 471.031 488.033 470.789 486.849M1115 755C1116.64 753.252 1118.22 751.535 1119.75 749.845M470.789 486.849C456.681 417.931 461.342 360.24 504.282 296.41C553.929 222.61 618.471 202.765 706.782 192.16C870.5 172.5 969.743 226.255 1101.66 310.749L1105.03 312.91C1218.5 391 1213.35 494.41 1189.78 576.91C1163.58 668.623 1170.08 694.253 1119.75 749.845M470.789 486.849C486.528 445.081 506.607 416.37 547.782 390.16C619.463 344.533 674 383.5 758.5 401.5C832.286 417.218 888.001 431.25 925.5 471C948.836 495.736 957.45 511.5 961 547C964.55 582.5 969.282 606.321 969.282 657.16C969.282 708 943.175 774.315 952.782 781.66C965.532 791.41 995.671 757.693 1025.53 748.66C1054.25 739.975 1074.68 722.036 1101.28 735.91C1109.29 740.09 1114.98 744.263 1119.75 749.845M470.789 486.849C468.105 493.972 465.547 501.475 463.032 509.41C450.076 550.29 456.795 567.91 454.782 618.91C452.532 675.91 418.077 712.66 415.032 762.91C411.986 813.16 428.532 996.161 478.032 1076.41C505.148 1099.43 545.88 1111 567.282 1139.41C584.532 1204.66 604.032 1232.41 615.282 1303.66C612.107 1328.69 604.568 1341.55 598.032 1365.91C589.782 1396.66 580.354 1416 602.032 1433.91C619.282 1448.16 685.411 1408.75 737.532 1381.66C851.067 1322.65 883.797 1244.11 990.282 1173.16C1021.6 1152.3 1071.86 1159.79 1072.03 1122.16C1072.17 1093.66 1037.49 1091.78 1025.53 1065.91C1005.88 1023.37 1010.56 990.319 1025.53 945.911C1042.28 896.229 1090.98 890.851 1111.03 842.41C1123.18 813.057 1142.96 791.083 1128.28 762.91C1125.57 757.7 1122.85 753.475 1119.75 749.845" stroke="black" stroke-width="30"/>
<path d="M489.152 929.289C492.843 929.75 500.539 936.338 503.909 938.398C519.119 947.693 532.087 951.038 549.91 953.064C573.899 955.79 600.742 951.666 623.603 944.046" stroke="black" stroke-width="40" stroke-linecap="round"/>
<path d="M487.362 687.424L559.009 646.059" stroke="black" stroke-width="40" stroke-linecap="round"/>
<path d="M502.632 630.435L543.998 702.082" stroke="black" stroke-width="40" stroke-linecap="round"/>
<path d="M659.425 726.933L731.073 685.567" stroke="black" stroke-width="40" stroke-linecap="round"/>
<path d="M674.567 670.426L715.932 742.074" stroke="black" stroke-width="40" stroke-linecap="round"/>
</svg>
